<?xml version="1.0" encoding="utf-8"?>
<!-- Generator: Adobe Illustrator 27.3.1, SVG Export Plug-In . SVG Version: 6.00 Build 0)  -->
<svg version="1.1" id="Layer_1" xmlns="http://www.w3.org/2000/svg" xmlns:xlink="http://www.w3.org/1999/xlink" x="0px" y="0px"
	 viewBox="0 0 1080 1080" style="enable-background:new 0 0 1080 1080;" xml:space="preserve">
<style type="text/css">
	.st0{fill:url(#SVGID_1_);}
	.st1{fill:#100D22;}
	.st2{fill:#FFFFFF;}
	.st3{fill:url(#SVGID_00000025429129352448577930000004651165381886685114_);}
	.st4{fill:url(#SVGID_00000005980992733507278340000005120916156099583412_);}
	.st5{fill:url(#SVGID_00000063616596542708830920000002814888332074968219_);}
	.st6{fill:url(#SVGID_00000075883730725718260990000000192734142063472807_);}
	.st7{fill:url(#SVGID_00000174563619648991359520000004941059369939249308_);}
	.st8{fill:url(#SVGID_00000085241438953694750670000003325163567962625408_);}
	.st9{fill:url(#SVGID_00000116955229094074651120000004348923515661388943_);}
	.st10{fill:url(#SVGID_00000134228652108481047510000016972736794058389422_);}
</style>
<linearGradient id="SVGID_1_" gradientUnits="userSpaceOnUse" x1="-28.48" y1="540" x2="1108.48" y2="540">
	<stop  offset="0" style="stop-color:#9E85F9"/>
	<stop  offset="1" style="stop-color:#D6CEFF"/>
</linearGradient>
<rect x="-28.48" y="-28.48" class="st0" width="1136.96" height="1136.96"/>
<g>
	<path class="st1" d="M804.44,245.21c-0.03-26.24-11.1-38.33-37.17-38.44c-64.53-0.27-129.08-0.3-193.63-0.22v-0.08H418.06
		c-2.74,7.56,7.54,141.26-8.14,140.38H275.4v158.63h155.57c0.86-201.42-30.14-131.61,192.69-143.7c0-13.08,0-35.27,0-48.38
		c-16.76-8.95-23.75-36.8-5.49-54.43c45.42-31.46,79.25,39.75,33.92,57.07c-3.81,65.34-0.14,131.59-1.33,197.19h0
		c-0.06,6.78,0.02,18.06,0,24.96c12.81,0.01,30.6,0.19,43.16,0c1.73-23.51,37.05-35.81,57.15-14.8
		c29.85,42.68-33.64,77.96-55.19,38.06c-85.47-0.07-334.24-0.1-420.47-0.17l0,312.25l211.8,0c0.07-42.09,0.03-109.84,0.1-160.55
		h0.07c-0.35-9.67,1.07-32.91-1.44-41.96c-18.53-7.93-27.09-37.22-7.96-55.73c45.69-31.65,79.43,40.5,33.38,57.2
		c0,8.67,0,32.15,0,40.49c85.73-0.03,173.74,0.13,259.29,0c24.98-0.03,33.86-8.78,33.86-34C804.64,534.4,804.64,389.8,804.44,245.21
		z"/>
	<path class="st1" d="M746.27,546.3c0.38-26.17-40.72-26.17-40.34,0C705.55,572.46,746.65,572.47,746.27,546.3z"/>
	<path class="st1" d="M660.8,284.1c0.38-26.17-40.72-26.17-40.34,0C620.08,310.26,661.18,310.27,660.8,284.1z"/>
	<path class="st1" d="M520.77,642.02c0.38-26.17-40.72-26.17-40.34,0C480.05,668.19,521.16,668.19,520.77,642.02z"/>
</g>
</svg>
